<?xml version="1.0" encoding="iso-8859-1"?>
<!-- Generator: Adobe Illustrator 16.0.0, SVG Export Plug-In . SVG Version: 6.00 Build 0)  -->
<!DOCTYPE svg PUBLIC "-//W3C//DTD SVG 1.1//EN" "http://www.w3.org/Graphics/SVG/1.1/DTD/svg11.dtd">
<svg version="1.1" id="Capa_1" xmlns="http://www.w3.org/2000/svg" xmlns:xlink="http://www.w3.org/1999/xlink" x="0px" y="0px"
	 width="238.203px" height="238.203px" viewBox="0 0 238.203 238.203" style="enable-background:new 0 0 238.203 238.203;"
	 xml:space="preserve">
<g>
	<path d="M152.103,211.681c8.966,1.677,17.021,6.156,23.935,13.299l11.245,11.621c0.968,1.003,2.296,1.578,3.688,1.602
		c0.027,0,0.062,0,0.09,0c1.361,0,2.672-0.526,3.654-1.478l23.25-22.498c1.003-0.965,1.578-2.293,1.602-3.692
		c0.021-1.393-0.51-2.741-1.479-3.74l-11.245-11.622c-13.028-13.463-29.225-22.326-46.835-25.625
		c-3.361-0.63-6.756-0.951-10.086-0.951c-16.132,0-28.561,7.282-38.567,13.141c-7.86,4.604-13.538,7.934-19.718,7.934
		c-4.48,0-9.456-1.708-15.66-5.373c-11.557-6.831-13.72-13.538-14.312-18.624c-2.707-23.223,25.019-57.026,37.979-70.325
		l3.439,3.441c1.975,1.973,5.465,1.973,7.433,0l19.297-19.301c2.054-2.055,2.054-5.379,0-7.433l-4.859-4.861l8.542-10.208
		c1.848-2.214,1.57-5.501-0.623-7.373l-18.835-16.074c-2.128-1.826-5.318-1.65-7.238,0.394l-7.324,7.782l-5.403-5.403
		c-2.057-2.054-5.38-2.054-7.433,0L67.339,55.61c-2.053,2.054-2.053,5.378,0,7.432l1.992,1.986
		C56.316,78.268,13.847,125.32,19.08,170.571c1.694,14.644,9.154,35.307,35.084,50.624c12.696,7.505,25.307,11.307,37.473,11.307
		c17.871,0,31.459-7.96,41.384-13.781C141.932,213.505,146.996,210.74,152.103,211.681z M127.709,209.652
		c-9.38,5.492-21.053,12.337-36.069,12.337c-10.407,0-20.913-3.221-32.124-9.842c-22.217-13.128-28.571-30.506-29.992-42.773
		c-5.236-45.272,44.54-94.413,50.227-99.866l0.674-0.645c1.023-0.977,1.605-2.327,1.622-3.739c0.017-1.413-0.538-2.775-1.537-3.774
		l-2.019-2.019l11.865-11.865l5.516,5.517c1.006,1.001,2.334,1.516,3.795,1.538c1.424-0.022,2.775-0.621,3.75-1.654l7.608-8.082
		l11.067,9.445l-8.286,9.902c-1.749,2.093-1.608,5.169,0.315,7.089l4.545,4.546l-11.865,11.868l-3.416-3.412
		c-2.016-2.022-5.284-2.055-7.347-0.082l-1.177,1.126c-0.479,0.462-47.746,46.405-43.643,81.622
		c1.266,10.831,7.611,19.482,19.404,26.454c7.892,4.664,14.568,6.837,21.012,6.837c9.034,0,16.443-4.346,25.046-9.387
		c9.353-5.476,19.958-11.684,33.236-11.684c2.683,0,5.424,0.261,8.151,0.771c15.458,2.892,29.708,10.708,41.217,22.596l7.594,7.844
		l-15.694,15.188l-7.59-7.844c-8.46-8.739-18.401-14.235-29.564-16.323c-1.331-0.246-2.676-0.373-4-0.373
		C143.026,200.977,136.925,204.251,127.709,209.652z"/>
	<path d="M166.691,57.869c-0.076-1.622-0.894-3.117-2.218-4.054l-17.635-12.448V16.499c0-1.722-0.842-3.33-2.255-4.314
		c-1.406-0.979-3.214-1.209-4.825-0.618l-19.473,7.209L101.331,1.381c-1.246-1.143-2.963-1.615-4.627-1.27
		c-1.66,0.347-3.049,1.473-3.733,3.022l-8.545,19.351H53.979c-2.905,0-5.256,2.354-5.256,5.256s2.351,5.256,5.256,5.256h33.876
		c2.081,0,3.966-1.23,4.808-3.137l6.968-15.779l15.917,14.609c1.454,1.334,3.528,1.738,5.376,1.057l15.406-5.701v20.045
		c0,1.706,0.832,3.308,2.225,4.296l14.332,10.116l-14.708,12.546c-1.355,1.153-2.029,2.912-1.804,4.678l4.09,31.539
		c0.345,2.648,2.604,4.581,5.205,4.581c0.222,0,0.451-0.014,0.685-0.046c2.878-0.371,4.907-3.006,4.534-5.891l-3.724-28.71
		l17.689-15.09C166.085,61.055,166.763,59.489,166.691,57.869z"/>
</g>
<g>
</g>
<g>
</g>
<g>
</g>
<g>
</g>
<g>
</g>
<g>
</g>
<g>
</g>
<g>
</g>
<g>
</g>
<g>
</g>
<g>
</g>
<g>
</g>
<g>
</g>
<g>
</g>
<g>
</g>
</svg>
