<?xml version="1.0" encoding="iso-8859-1"?>
<!-- Generator: Adobe Illustrator 16.0.0, SVG Export Plug-In . SVG Version: 6.00 Build 0)  -->
<!DOCTYPE svg PUBLIC "-//W3C//DTD SVG 1.1//EN" "http://www.w3.org/Graphics/SVG/1.1/DTD/svg11.dtd">
<svg version="1.1" id="Capa_1" xmlns="http://www.w3.org/2000/svg" xmlns:xlink="http://www.w3.org/1999/xlink" x="0px" y="0px"
	 width="365.389px" height="365.389px" viewBox="0 0 365.389 365.389" style="enable-background:new 0 0 365.389 365.389;"
	 xml:space="preserve">
<g>
	<path d="M233.317,324.707c13.754,2.573,26.112,9.444,36.716,20.4l17.248,17.826c1.486,1.537,3.522,2.42,5.659,2.456
		c0.042,0,0.094,0,0.138,0c2.088,0,4.098-0.808,5.606-2.267l35.664-34.511c1.537-1.48,2.42-3.517,2.456-5.664
		c0.031-2.137-0.781-4.204-2.268-5.736l-17.25-17.828c-19.984-20.65-44.829-34.246-71.844-39.307
		c-5.153-0.966-10.362-1.46-15.47-1.46c-24.744,0-43.811,11.17-59.163,20.158c-12.056,7.061-20.765,12.168-30.248,12.168
		c-6.869,0-14.501-2.619-24.021-8.242c-17.724-10.479-21.044-20.767-21.953-28.566c-4.149-35.624,38.379-87.477,58.258-107.875
		l5.278,5.278c3.027,3.026,8.381,3.026,11.402,0l29.602-29.607c3.15-3.152,3.15-8.252,0-11.401l-7.455-7.457l13.104-15.659
		c2.834-3.396,2.41-8.438-0.956-11.31l-28.893-24.657c-3.268-2.801-8.16-2.53-11.105,0.604l-11.233,11.937l-8.289-8.289
		c-3.152-3.149-8.252-3.149-11.402,0l-29.604,29.604c-3.15,3.149-3.15,8.25,0,11.399l3.056,3.046
		c-19.966,20.311-85.109,92.484-77.085,161.897c2.599,22.463,14.042,54.159,53.819,77.655
		c19.475,11.513,38.817,17.343,57.479,17.343c27.415,0,48.261-12.208,63.484-21.139
		C217.717,327.505,225.485,323.262,233.317,324.707z"/>
	<path d="M255.695,88.767c-0.114-2.488-1.369-4.782-3.401-6.218l-27.05-19.094V25.307c0-2.641-1.291-5.108-3.459-6.617
		c-2.158-1.502-4.93-1.856-7.401-0.948L184.513,28.8L155.437,2.118c-1.913-1.754-4.549-2.478-7.1-1.947
		c-2.542,0.532-4.677,2.259-5.724,4.635l-13.108,29.682H82.798c-4.454,0-8.063,3.612-8.063,8.063s3.609,8.063,8.063,8.063h51.964
		c3.194,0,6.086-1.887,7.375-4.811l10.688-24.206l24.415,22.41c2.23,2.047,5.412,2.667,8.249,1.622l23.633-8.745v30.749
		c0,2.617,1.276,5.073,3.412,6.591l21.984,15.517l-22.562,19.244c-2.08,1.769-3.113,4.467-2.766,7.176l6.271,48.379
		c0.53,4.063,3.996,7.026,7.985,7.026c0.341,0,0.693-0.021,1.05-0.071c4.414-0.569,7.528-4.611,6.954-9.036l-5.711-44.04
		l27.136-23.147C254.765,93.654,255.806,91.252,255.695,88.767z"/>
</g>
<g>
</g>
<g>
</g>
<g>
</g>
<g>
</g>
<g>
</g>
<g>
</g>
<g>
</g>
<g>
</g>
<g>
</g>
<g>
</g>
<g>
</g>
<g>
</g>
<g>
</g>
<g>
</g>
<g>
</g>
</svg>
