<?xml version="1.0" encoding="iso-8859-1"?>
<!-- Generator: Adobe Illustrator 19.0.0, SVG Export Plug-In . SVG Version: 6.00 Build 0)  -->
<svg version="1.1" id="Capa_1" xmlns="http://www.w3.org/2000/svg" xmlns:xlink="http://www.w3.org/1999/xlink" x="0px" y="0px"
	 viewBox="0 0 60 60" style="enable-background:new 0 0 60 60;" xml:space="preserve">
<g>
	<rect x="34" y="33" width="1" height="1"/>
	<rect x="16" y="33" width="1" height="1"/>
	<rect x="28" y="26" width="1" height="1"/>
	<rect x="34" y="26" width="1" height="1"/>
	<rect x="22" y="26" width="1" height="1"/>
	<rect x="10" y="33" width="1" height="1"/>
	<rect x="16" y="26" width="1" height="1"/>
	<rect x="41" y="25" width="1" height="1"/>
	<rect x="28" y="33" width="1" height="1"/>
	<path d="M53.851,19H6.149C4.413,19,3,20.413,3,22.149v15.701C3,39.587,4.413,41,6.149,41h47.702C55.587,41,57,39.587,57,37.851
		V22.149C57,20.413,55.587,19,53.851,19z M39,23h5v5h-5V23z M13,36H8v-5h5V36z M13,29H8v-5h5V29z M19,36h-5v-5h5V36z M19,29h-5v-5h5
		V29z M25,36h-5v-5h5V36z M25,29h-5v-5h5V29z M31,36h-5v-5h5V36z M31,29h-5v-5h5V29z M37,36h-5v-5h5V36z M37,29h-5v-5h5V29z M44,37
		h-5v-5h5V37z M46,36c-0.552,0-1-0.447-1-1v-4h-4c-0.552,0-1-0.447-1-1s0.448-1,1-1h4v-4c0-0.553,0.448-1,1-1s1,0.447,1,1v4h4
		c0.552,0,1,0.447,1,1s-0.448,1-1,1h-4v4C47,35.553,46.552,36,46,36z M53,37h-5v-5h5V37z M53,28h-5v-5h5V28z"/>
	<rect x="50" y="25" width="1" height="1"/>
	<rect x="50" y="34" width="1" height="1"/>
	<rect x="22" y="33" width="1" height="1"/>
	<rect x="41" y="34" width="1" height="1"/>
	<path d="M55.421,16H4.579C2.054,16,0,18.054,0,20.579v18.842C0,41.946,2.054,44,4.579,44h50.843C57.946,44,60,41.946,60,39.421
		V20.579C60,18.054,57.946,16,55.421,16z M58,39.421C58,40.843,56.843,42,55.421,42H4.579C3.157,42,2,40.843,2,39.421V20.579
		C2,19.157,3.157,18,4.579,18h50.843C56.843,18,58,19.157,58,20.579V39.421z"/>
	<rect x="10" y="26" width="1" height="1"/>
</g>
<g>
</g>
<g>
</g>
<g>
</g>
<g>
</g>
<g>
</g>
<g>
</g>
<g>
</g>
<g>
</g>
<g>
</g>
<g>
</g>
<g>
</g>
<g>
</g>
<g>
</g>
<g>
</g>
<g>
</g>
</svg>
