<?xml version="1.0" encoding="iso-8859-1"?>
<!-- Generator: Adobe Illustrator 18.0.0, SVG Export Plug-In . SVG Version: 6.00 Build 0)  -->
<!DOCTYPE svg PUBLIC "-//W3C//DTD SVG 1.1//EN" "http://www.w3.org/Graphics/SVG/1.1/DTD/svg11.dtd">
<svg version="1.1" id="Capa_1" xmlns="http://www.w3.org/2000/svg" xmlns:xlink="http://www.w3.org/1999/xlink" x="0px" y="0px"
	 viewBox="0 0 297 297" style="enable-background:new 0 0 297 297;" xml:space="preserve">
<g>
	<path d="M286.932,32.183h-39.105V25.86c0-5.56-4.508-10.068-10.068-10.068h-65.564c-1.563,0-3.104,0.364-4.502,1.063
		l-32.782,16.391c-3.412,1.706-5.566,5.191-5.566,9.005v10.383H56.67C25.422,52.634,0,78.056,0,109.304V271.14
		c0,5.56,4.508,10.068,10.068,10.068h41.673c5.56,0,10.068-4.508,10.068-10.068V111.421h67.537v12.784
		c0,3.814,2.154,7.299,5.566,9.005l32.782,16.391c1.398,0.699,2.939,1.063,4.502,1.063h65.564c5.56,0,10.068-4.508,10.068-10.068
		v-6.323h39.105c5.56,0,10.068-4.508,10.068-10.068V42.25C297,36.69,292.492,32.183,286.932,32.183z M128.557,91.286H61.535
		c-10.952,0-19.862,8.911-19.862,19.863v149.924H20.136V109.304c0-20.145,16.389-36.535,36.534-36.535h71.887V91.286z
		 M227.691,130.528h-53.119l-25.091-12.545v-69.51l25.091-12.545h53.119V130.528z M276.864,114.138h-29.037v-61.82h29.037V114.138z"
		/>
	<path d="M262.092,74.632c1.862,0,3.674-0.755,4.983-2.064c1.319-1.319,2.074-3.131,2.074-4.984s-0.755-3.675-2.074-4.984
		c-1.309-1.318-3.121-2.064-4.983-2.064c-1.853,0-3.665,0.745-4.974,2.064c-1.318,1.309-2.074,3.121-2.074,4.984
		c0,1.852,0.755,3.664,2.074,4.984C258.427,73.877,260.239,74.632,262.092,74.632z"/>
	<path d="M262.102,92.322c-1.863,0-3.675,0.755-4.984,2.064c-1.318,1.309-2.064,3.13-2.064,4.984c0,1.862,0.745,3.674,2.064,4.983
		c1.309,1.31,3.121,2.065,4.984,2.065c1.852,0,3.664-0.755,4.973-2.065c1.319-1.309,2.074-3.121,2.074-4.983
		c0-1.853-0.755-3.675-2.074-4.984C265.766,93.077,263.954,92.322,262.102,92.322z"/>
</g>
<g>
</g>
<g>
</g>
<g>
</g>
<g>
</g>
<g>
</g>
<g>
</g>
<g>
</g>
<g>
</g>
<g>
</g>
<g>
</g>
<g>
</g>
<g>
</g>
<g>
</g>
<g>
</g>
<g>
</g>
</svg>
