<?xml version="1.0" encoding="iso-8859-1"?>
<!-- Generator: Adobe Illustrator 16.0.0, SVG Export Plug-In . SVG Version: 6.00 Build 0)  -->
<!DOCTYPE svg PUBLIC "-//W3C//DTD SVG 1.1//EN" "http://www.w3.org/Graphics/SVG/1.1/DTD/svg11.dtd">
<svg version="1.1" id="Capa_1" xmlns="http://www.w3.org/2000/svg" xmlns:xlink="http://www.w3.org/1999/xlink" x="0px" y="0px"
	 width="211.699px" height="211.698px" viewBox="0 0 211.699 211.698" style="enable-background:new 0 0 211.699 211.698;"
	 xml:space="preserve">
<g>
	<path d="M8.948,146.448c1.602,13.846,8.69,33.414,33.388,48.002c12.145,7.177,24.155,10.818,35.688,10.818
		c16.919,0,30.031-7.687,39.611-13.299c9.562-5.605,15.188-8.624,21.505-7.467c9.695,1.82,18.377,6.635,25.8,14.311l12.467,12.885
		l25.769-24.934l-12.47-12.881c-12.519-12.939-28.069-21.454-44.961-24.616c-3.148-0.588-6.324-0.89-9.438-0.89
		c-15.184,0-27.161,7.016-36.801,12.659c-8.333,4.883-14.353,8.408-21.484,8.408c-5.133,0-10.677-1.858-17.445-5.859
		c-13.026-7.699-15.377-15.807-16.007-21.234c-3.078-26.34,28.825-63.501,41.463-75.689l7.156,7.156l21.779-21.779l-7.427-7.426
		l19.523-5.852l-3.322-11.105l-21.514,6.451l16.161-28.366L108.322,0L95.816,21.945V2.635H84.227V21.3l-7.483-7.482L54.965,35.604
		l5.708,5.708C52.431,49.334,3.484,99.196,8.948,146.448z M59.92,35.604l16.823-16.822L87.731,29.77V6.15h4.58v29.027l17.318-30.386
		l3.981,2.268l-18.764,32.93l26.535-7.962l1.317,4.391l-21.79,6.536l9.098,9.096L93.184,68.873l-7.094-7.1l-2.415,2.303
		c-12.944,12.462-45.831,50.887-42.59,78.693c0.722,6.166,3.343,15.349,17.711,23.842c7.33,4.333,13.439,6.352,19.224,6.352
		c8.082,0,14.777-3.929,23.276-8.904c9.737-5.701,20.781-12.169,35.01-12.169c2.899,0,5.855,0.28,8.795,0.828
		c16.177,3.031,31.077,11.19,43.086,23.605l10.033,10.362l-20.731,20.064l-10.026-10.366c-7.943-8.206-17.255-13.359-27.679-15.317
		c-1.137-0.212-2.238-0.312-3.364-0.312c-6.115,0-11.844,3.098-20.55,8.196c-9.741,5.708-21.87,12.819-37.839,12.819
		c-10.898,0-22.306-3.477-33.907-10.331c-23.456-13.856-30.18-32.329-31.686-45.389c-5.436-46.95,45.46-97.222,51.278-102.79
		l1.979-1.882L59.92,35.604z"/>
</g>
<g>
</g>
<g>
</g>
<g>
</g>
<g>
</g>
<g>
</g>
<g>
</g>
<g>
</g>
<g>
</g>
<g>
</g>
<g>
</g>
<g>
</g>
<g>
</g>
<g>
</g>
<g>
</g>
<g>
</g>
</svg>
