<?xml version="1.0" encoding="iso-8859-1"?>
<!-- Generator: Adobe Illustrator 17.1.0, SVG Export Plug-In . SVG Version: 6.00 Build 0)  -->
<!DOCTYPE svg PUBLIC "-//W3C//DTD SVG 1.1//EN" "http://www.w3.org/Graphics/SVG/1.1/DTD/svg11.dtd">
<svg version="1.1" id="Capa_1" xmlns="http://www.w3.org/2000/svg" xmlns:xlink="http://www.w3.org/1999/xlink" x="0px" y="0px"
	 viewBox="0 0 275 275" style="enable-background:new 0 0 275 275;" xml:space="preserve">
<g>
	<path style="fill:#000002;" d="M275,52c0-8.284-6.716-15-15-15H15C6.716,37,0,43.716,0,52v171c0,8.284,6.716,15,15,15h245
		c8.284,0,15-6.716,15-15V52z M251,152h-33v32h-36v28H94v-28H58v-32H25V73h226V152z"/>
	<path style="fill:#000002;" d="M61,138.199c8.284,0,15-6.716,15-15V95.027c0-8.284-6.716-15-15-15s-15,6.716-15,15v28.172
		C46,131.483,52.716,138.199,61,138.199z"/>
	<path style="fill:#000002;" d="M112,138.199c8.284,0,15-6.716,15-15V95.027c0-8.284-6.716-15-15-15s-15,6.716-15,15v28.172
		C97,131.483,103.716,138.199,112,138.199z"/>
	<path style="fill:#000002;" d="M164,138.199c8.284,0,15-6.716,15-15V95.027c0-8.284-6.716-15-15-15c-8.284,0-15,6.716-15,15v28.172
		C149,131.483,155.716,138.199,164,138.199z"/>
	<path style="fill:#000002;" d="M215,138.199c8.284,0,15-6.716,15-15V95.027c0-8.284-6.716-15-15-15c-8.284,0-15,6.716-15,15v28.172
		C200,131.483,206.716,138.199,215,138.199z"/>
</g>
<g>
</g>
<g>
</g>
<g>
</g>
<g>
</g>
<g>
</g>
<g>
</g>
<g>
</g>
<g>
</g>
<g>
</g>
<g>
</g>
<g>
</g>
<g>
</g>
<g>
</g>
<g>
</g>
<g>
</g>
</svg>
