<?xml version="1.0" encoding="iso-8859-1"?>
<!-- Generator: Adobe Illustrator 18.0.0, SVG Export Plug-In . SVG Version: 6.00 Build 0)  -->
<!DOCTYPE svg PUBLIC "-//W3C//DTD SVG 1.1//EN" "http://www.w3.org/Graphics/SVG/1.1/DTD/svg11.dtd">
<svg version="1.1" id="Capa_1" xmlns="http://www.w3.org/2000/svg" xmlns:xlink="http://www.w3.org/1999/xlink" x="0px" y="0px"
	 viewBox="0 0 320 320" style="enable-background:new 0 0 320 320;" xml:space="preserve">
<path d="M310.35,19.465H9.648C4.319,19.465,0,23.784,0,29.113v261.773c0,5.329,4.319,9.648,9.648,9.648h69.006h34.039h30.287h34.039
	h30.287h34.039h69.004c5.33,0,9.65-4.319,9.65-9.648V29.113C320,23.784,315.68,19.465,310.35,19.465z M285.961,266.496h-44.615
	v-51.941h-34.039v51.941H177.02v-51.941H142.98v51.941h-30.287v-51.941H78.654v51.941H34.039V53.504H90.5v18.208h139V53.504h56.461
	V266.496z"/>
<g>
</g>
<g>
</g>
<g>
</g>
<g>
</g>
<g>
</g>
<g>
</g>
<g>
</g>
<g>
</g>
<g>
</g>
<g>
</g>
<g>
</g>
<g>
</g>
<g>
</g>
<g>
</g>
<g>
</g>
</svg>
