<?xml version="1.0" encoding="iso-8859-1"?>
<!-- Generator: Adobe Illustrator 18.0.0, SVG Export Plug-In . SVG Version: 6.00 Build 0)  -->
<!DOCTYPE svg PUBLIC "-//W3C//DTD SVG 1.1//EN" "http://www.w3.org/Graphics/SVG/1.1/DTD/svg11.dtd">
<svg version="1.1" id="Capa_1" xmlns="http://www.w3.org/2000/svg" xmlns:xlink="http://www.w3.org/1999/xlink" x="0px" y="0px"
	 viewBox="0 0 487.834 487.834" style="enable-background:new 0 0 487.834 487.834;" xml:space="preserve">
<g>
	<path d="M483.584,44.471H4.25c-2.347,0-4.25,1.902-4.25,4.25v390.393c0,2.348,1.903,4.25,4.25,4.25h479.334
		c2.347,0,4.25-1.902,4.25-4.25V48.721C487.834,46.373,485.931,44.471,483.584,44.471z M8.5,434.863v-37.295h112.049
		c2.348,0,4.25-1.902,4.25-4.25c0-2.348-1.902-4.25-4.25-4.25H8.5V52.971h470.834v273.431h-64.019c-2.348,0-4.25,1.902-4.25,4.25
		c0,2.348,1.902,4.25,4.25,4.25h64.019v99.962H8.5z"/>
	<path d="M439.5,283.25V94.583c0-2.348-1.902-4.25-4.25-4.25H52.584c-2.348,0-4.25,1.902-4.25,4.25V283.25
		c0,2.348,1.902,4.25,4.25,4.25H92v57.75c0,2.348,1.903,4.25,4.25,4.25h57.417v43.75c0,2.348,1.902,4.25,4.25,4.25h172
		c2.347,0,4.25-1.902,4.25-4.25V349.5h57.417c2.347,0,4.25-1.902,4.25-4.25V287.5h39.416C437.598,287.5,439.5,285.598,439.5,283.25z
		 M397.334,98.901v81.5h-13.5v-81.5H397.334z M348.445,98.901v81.5h-13.5v-81.5H348.445z M299.556,98.901v81.5h-13.5v-81.5H299.556z
		 M250.667,98.901v81.5h-13.5v-81.5H250.667z M201.778,98.901v81.5h-13.5v-81.5H201.778z M152.89,98.901v81.5h-13.5v-81.5H152.89z
		 M104.001,98.901v81.5h-13.5v-81.5H104.001z M431,279h-39.416c-2.348,0-4.25,1.902-4.25,4.25v33.818h-26.418
		c-2.347,0-4.25,1.902-4.25,4.25c0,2.348,1.903,4.25,4.25,4.25h26.418V341h-57.417c-2.348,0-4.25,1.902-4.25,4.25v24.485H219.583
		c-2.348,0-4.25,1.902-4.25,4.25c0,2.348,1.902,4.25,4.25,4.25h106.084V389h-163.5v-43.75c0-2.348-1.903-4.25-4.25-4.25H100.5
		v-57.75c0-2.348-1.902-4.25-4.25-4.25H56.834v-22.099h50.749c2.347,0,4.25-1.902,4.25-4.25c0-2.348-1.903-4.25-4.25-4.25H56.834
		V98.833h25.167v85.818c0,2.348,1.902,4.25,4.25,4.25h22c2.347,0,4.25-1.902,4.25-4.25V98.833h18.389v85.818
		c0,2.348,1.902,4.25,4.25,4.25h22c2.347,0,4.25-1.902,4.25-4.25V98.833h18.389v85.818c0,2.348,1.902,4.25,4.25,4.25h22
		c2.347,0,4.25-1.902,4.25-4.25V98.833h18.389v85.818c0,2.348,1.902,4.25,4.25,4.25h22c2.347,0,4.25-1.902,4.25-4.25V98.833h18.389
		v85.818c0,2.348,1.902,4.25,4.25,4.25h22c2.347,0,4.25-1.902,4.25-4.25V98.833h18.39v85.818c0,2.348,1.902,4.25,4.25,4.25h22
		c2.347,0,4.25-1.902,4.25-4.25V98.833h18.389v85.818c0,2.348,1.902,4.25,4.25,4.25h22c2.347,0,4.25-1.902,4.25-4.25V98.833H431V279
		z"/>
</g>
<g>
</g>
<g>
</g>
<g>
</g>
<g>
</g>
<g>
</g>
<g>
</g>
<g>
</g>
<g>
</g>
<g>
</g>
<g>
</g>
<g>
</g>
<g>
</g>
<g>
</g>
<g>
</g>
<g>
</g>
</svg>
