<?xml version="1.0" encoding="iso-8859-1"?>
<!-- Generator: Adobe Illustrator 18.1.1, SVG Export Plug-In . SVG Version: 6.00 Build 0)  -->
<svg version="1.1" id="Capa_1" xmlns="http://www.w3.org/2000/svg" xmlns:xlink="http://www.w3.org/1999/xlink" x="0px" y="0px"
	 viewBox="0 0 290.035 290.035" style="enable-background:new 0 0 290.035 290.035;" xml:space="preserve">
<g>
	<path id="path10832" d="M25.018,0c-13.764,0-25,11.236-25,25v240.035c0,13.764,11.236,25,25,25h240c13.764,0,25-11.236,25-25V25
		c0-13.764-11.236-25-25-25H25.018z M25.018,10h240c8.396,0,15,6.604,15,15v240.035c0,8.396-6.604,15-15,15h-240
		c-8.396,0-15-6.604-15-15V25C10.018,16.604,16.621,10,25.018,10z M25.018,22.5c-1.381,0-2.5,1.119-2.5,2.5v50
		c-0.02,1.381,1.084,2.516,2.465,2.535c1.381,0.02,2.516-1.084,2.535-2.465c0-0.024,0-0.047,0-0.071V27.5h47.5
		c1.381,0.02,2.516-1.084,2.535-2.465c0.02-1.381-1.084-2.516-2.465-2.535c-0.024,0-0.047,0-0.071,0H25.018z M125.732,64.447
		c-11.587,0-21.072,9.483-21.072,21.07v7.857H71.09c-11.587,0-21.072,9.485-21.072,21.072v90c0,11.587,9.485,21.07,21.072,21.07
		h147.855c11.587,0,21.072-9.484,21.072-21.07v-90c0-11.587-9.485-21.072-21.072-21.072h-33.57v-7.857
		c0-11.587-9.485-21.07-21.072-21.07H125.732z M125.732,74.447h38.57c6.22,0,11.072,4.85,11.072,11.07v12.857c0,2.761,2.239,5,5,5
		h38.57c6.22,0,11.072,4.852,11.072,11.072v90c0,6.219-4.852,11.07-11.072,11.07h-4.643v-27.143c0.04-2.818-2.256-5.112-5.074-5.07
		c-2.76,0.041-4.965,2.31-4.926,5.07v27.143H182.16v-27.143c0.04-2.818-2.256-5.112-5.074-5.07c-2.76,0.041-4.965,2.31-4.926,5.07
		v27.143h-22.143v-27.143c0.04-2.819-2.257-5.113-5.076-5.07c-2.759,0.042-4.963,2.311-4.924,5.07v27.143h-22.143v-27.143
		c0.04-2.819-2.257-5.113-5.076-5.07c-2.759,0.042-4.963,2.311-4.924,5.07v27.143H85.732v-27.143c0.04-2.819-2.257-5.113-5.076-5.07
		c-2.759,0.042-4.963,2.311-4.924,5.07v27.143H71.09c-6.22,0-11.072-4.851-11.072-11.07v-90c0-6.221,4.852-11.072,11.072-11.072
		h38.57c2.761,0,5-2.239,5-5V85.518C114.66,79.297,119.512,74.447,125.732,74.447z M125.018,82.5c-1.381,0-2.5,1.119-2.5,2.5v10
		c-0.02,1.381,1.084,2.516,2.465,2.535c1.381,0.02,2.516-1.084,2.535-2.465c0-0.024,0-0.047,0-0.071v-7.5h7.5
		c1.381,0.02,2.516-1.084,2.535-2.465c0.02-1.381-1.084-2.516-2.465-2.535c-0.024,0-0.047,0-0.071,0H125.018z"/>
</g>
<g>
</g>
<g>
</g>
<g>
</g>
<g>
</g>
<g>
</g>
<g>
</g>
<g>
</g>
<g>
</g>
<g>
</g>
<g>
</g>
<g>
</g>
<g>
</g>
<g>
</g>
<g>
</g>
<g>
</g>
</svg>
