<?xml version="1.0" encoding="iso-8859-1"?>
<!-- Generator: Adobe Illustrator 19.1.0, SVG Export Plug-In . SVG Version: 6.00 Build 0)  -->
<svg version="1.1" id="Capa_1" xmlns="http://www.w3.org/2000/svg" xmlns:xlink="http://www.w3.org/1999/xlink" x="0px" y="0px"
	 viewBox="0 0 194.665 194.665" style="enable-background:new 0 0 194.665 194.665;" xml:space="preserve">
<g>
	<g>
		<g>
			<path d="M64.751,74.722H36.304c-0.441,0-0.8-0.358-0.8-0.8V45.486c0-0.442,0.358-0.8,0.8-0.8h28.447c0.441,0,0.8,0.358,0.8,0.8
				v28.437C65.551,74.365,65.192,74.722,64.751,74.722z M37.104,73.123h26.848V46.285H37.104V73.123z"/>
			<path d="M123.134,98.443c-0.216,0-0.431-0.086-0.588-0.257L87.601,60.299H65.111c-0.441,0-0.8-0.358-0.8-0.8s0.358-0.8,0.8-0.8
				h22.84c0.224,0,0.437,0.093,0.588,0.257l35.183,38.144c0.3,0.325,0.279,0.831-0.046,1.13
				C123.522,98.373,123.328,98.443,123.134,98.443z"/>
			<path d="M173.236,118.953c-9.953,0-18.519-6.769-20.829-16.461c-0.014-0.056-0.021-0.114-0.021-0.171l-0.159-8.904
				c-0.001-0.058,0.004-0.116,0.016-0.173c2.013-9.939,10.842-17.153,20.994-17.153c11.816,0,21.429,9.617,21.429,21.438
				C194.665,109.343,185.053,118.953,173.236,118.953z M153.983,102.204c2.168,8.924,10.072,15.149,19.253,15.149
				c10.934,0,19.829-8.893,19.829-19.824c0-10.939-8.896-19.839-19.829-19.839c-9.365,0-17.514,6.633-19.408,15.786L153.983,102.204
				z"/>
			<path d="M109.728,136.806H90.005c-0.441,0-0.8-0.358-0.8-0.8s0.358-0.8,0.8-0.8h19.393l37.891-37.616
				c0.313-0.311,0.819-0.31,1.131,0.004c0.312,0.313,0.31,0.82-0.004,1.131l-38.124,37.848
				C110.142,136.722,109.938,136.806,109.728,136.806z"/>
			<path d="M73.882,149.979c-9.633,0-17.469-7.836-17.469-17.469c0-9.632,7.836-17.468,17.469-17.468
				c8.661,0,15.914,6.218,17.245,14.786c0.009,0.057,0.012,0.114,0.009,0.17l-0.423,7.099c-0.004,0.058-0.014,0.115-0.029,0.171
				C88.563,144.752,81.653,149.979,73.882,149.979z M73.882,116.642c-8.75,0-15.869,7.119-15.869,15.868
				c0,8.75,7.119,15.87,15.869,15.87c7.031,0,13.285-4.71,15.239-11.465l0.412-6.924C88.289,122.251,81.721,116.642,73.882,116.642z
				"/>
			<path d="M27.315,121.209c-0.188,0-0.373-0.065-0.521-0.192L0.279,98.283C0.103,98.131,0,97.91,0,97.677
				c-0.001-0.233,0.101-0.455,0.277-0.607l26.516-22.898c0.235-0.205,0.572-0.253,0.855-0.122c0.284,0.13,0.467,0.415,0.467,0.728
				v45.632c0,0.312-0.182,0.596-0.466,0.727C27.543,121.185,27.429,121.209,27.315,121.209z M2.026,97.674l24.489,20.996V76.526
				L2.026,97.674z"/>
		</g>
	</g>
	<path d="M152.146,98.443H27.315c-0.441,0-0.8-0.358-0.8-0.8s0.358-0.8,0.8-0.8h124.83c0.441,0,0.8,0.358,0.8,0.8
		S152.587,98.443,152.146,98.443z"/>
</g>
<g>
</g>
<g>
</g>
<g>
</g>
<g>
</g>
<g>
</g>
<g>
</g>
<g>
</g>
<g>
</g>
<g>
</g>
<g>
</g>
<g>
</g>
<g>
</g>
<g>
</g>
<g>
</g>
<g>
</g>
</svg>
